# Blender v3.2.2 OBJ File: ''
# www.blender.org
mtllib test.mtl
o Cylinder
v 0.000000 -0.100000 -0.500000
v 0.000000 0.100000 -0.500000
v 0.097545 -0.100000 -0.490393
v 0.097545 0.100000 -0.490393
v 0.191342 -0.100000 -0.461940
v 0.191342 0.100000 -0.461940
v 0.277785 -0.100000 -0.415735
v 0.277785 0.100000 -0.415735
v 0.353553 -0.100000 -0.353553
v 0.353553 0.100000 -0.353553
v 0.415735 -0.100000 -0.277785
v 0.415735 0.100000 -0.277785
v 0.461940 -0.100000 -0.191342
v 0.461940 0.100000 -0.191342
v 0.490393 -0.100000 -0.097545
v 0.490393 0.100000 -0.097545
v 0.500000 -0.100000 0.000000
v 0.500000 0.100000 0.000000
v 0.490393 -0.100000 0.097545
v 0.490393 0.100000 0.097545
v 0.461940 -0.100000 0.191342
v 0.461940 0.100000 0.191342
v 0.415735 -0.100000 0.277785
v 0.415735 0.100000 0.277785
v 0.353553 -0.100000 0.353553
v 0.353553 0.100000 0.353553
v 0.277785 -0.100000 0.415735
v 0.277785 0.100000 0.415735
v 0.191342 -0.100000 0.461940
v 0.191342 0.100000 0.461940
v 0.097545 -0.100000 0.490393
v 0.097545 0.100000 0.490393
v -0.000000 -0.100000 0.500000
v -0.000000 0.100000 0.500000
v -0.097545 -0.100000 0.490393
v -0.097545 0.100000 0.490393
v -0.191342 -0.100000 0.461940
v -0.191342 0.100000 0.461940
v -0.277785 -0.100000 0.415735
v -0.277785 0.100000 0.415735
v -0.353553 -0.100000 0.353553
v -0.353553 0.100000 0.353553
v -0.415735 -0.100000 0.277785
v -0.415735 0.100000 0.277785
v -0.461940 -0.100000 0.191342
v -0.461940 0.100000 0.191342
v -0.490393 -0.100000 0.097545
v -0.490393 0.100000 0.097545
v -0.500000 -0.100000 -0.000000
v -0.500000 0.100000 -0.000000
v -0.490393 -0.100000 -0.097545
v -0.490393 0.100000 -0.097545
v -0.461940 -0.100000 -0.191342
v -0.461940 0.100000 -0.191342
v -0.415735 -0.100000 -0.277785
v -0.415735 0.100000 -0.277785
v -0.353553 -0.100000 -0.353553
v -0.353553 0.100000 -0.353553
v -0.277785 -0.100000 -0.415735
v -0.277785 0.100000 -0.415735
v -0.191342 -0.100000 -0.461940
v -0.191342 0.100000 -0.461940
v -0.097545 -0.100000 -0.490393
v -0.097545 0.100000 -0.490393
v -0.269460 0.100000 0.032483
v -0.044582 0.362687 0.032483
v -0.044582 0.100000 -0.296349
v -0.044582 0.197939 -0.075175
v 0.089786 0.100000 0.254191
v 0.089786 0.197939 0.032483
v 0.265818 0.100000 -0.075175
v 0.089786 0.197939 -0.075175
vt 1.000000 0.500000
vt 0.968750 1.000000
vt 0.968750 0.500000
vt 0.937500 1.000000
vt 0.937500 0.500000
vt 0.906250 1.000000
vt 0.906250 0.500000
vt 0.875000 1.000000
vt 0.875000 0.500000
vt 0.843750 1.000000
vt 0.843750 0.500000
vt 0.812500 1.000000
vt 0.812500 0.500000
vt 0.781250 1.000000
vt 0.781250 0.500000
vt 0.750000 1.000000
vt 0.750000 0.500000
vt 0.718750 1.000000
vt 0.718750 0.500000
vt 0.687500 1.000000
vt 0.687500 0.500000
vt 0.656250 1.000000
vt 0.656250 0.500000
vt 0.625000 1.000000
vt 0.625000 0.500000
vt 0.593750 1.000000
vt 0.593750 0.500000
vt 0.562500 1.000000
vt 0.562500 0.500000
vt 0.531250 1.000000
vt 0.531250 0.500000
vt 0.500000 1.000000
vt 0.500000 0.500000
vt 0.468750 1.000000
vt 0.468750 0.500000
vt 0.437500 1.000000
vt 0.437500 0.500000
vt 0.406250 1.000000
vt 0.406250 0.500000
vt 0.375000 1.000000
vt 0.375000 0.500000
vt 0.343750 1.000000
vt 0.343750 0.500000
vt 0.312500 1.000000
vt 0.312500 0.500000
vt 0.281250 1.000000
vt 0.281250 0.500000
vt 0.250000 1.000000
vt 0.250000 0.500000
vt 0.218750 1.000000
vt 0.218750 0.500000
vt 0.187500 1.000000
vt 0.187500 0.500000
vt 0.156250 1.000000
vt 0.156250 0.500000
vt 0.125000 1.000000
vt 0.125000 0.500000
vt 0.093750 1.000000
vt 0.093750 0.500000
vt 0.062500 1.000000
vt 0.062500 0.500000
vt 0.028269 0.341844
vt 0.158156 0.028269
vt 0.471731 0.158156
vt 0.031250 1.000000
vt 0.031250 0.500000
vt 0.000000 1.000000
vt 0.000000 0.500000
vt 0.985388 0.296822
vt 0.796822 0.014612
vt 0.514612 0.203178
vt 0.375000 0.000000
vt 0.625000 0.250000
vt 0.375000 0.250000
vt 0.625000 0.500000
vt 0.375000 0.500000
vt 0.625000 0.750000
vt 0.375000 0.750000
vt 0.625000 1.000000
vt 0.375000 1.000000
vt 0.125000 0.500000
vt 0.125000 0.750000
vt 0.875000 0.750000
vt 1.000000 1.000000
vt 0.341844 0.471731
vt 0.296822 0.485388
vt 0.158156 0.471731
vt 0.250000 0.490000
vt 0.203178 0.485388
vt 0.116663 0.449553
vt 0.080294 0.419706
vt 0.050447 0.383337
vt 0.014612 0.296822
vt 0.010000 0.250000
vt 0.014612 0.203178
vt 0.028269 0.158156
vt 0.050447 0.116663
vt 0.080294 0.080294
vt 0.116663 0.050447
vt 0.203178 0.014612
vt 0.250000 0.010000
vt 0.296822 0.014612
vt 0.341844 0.028269
vt 0.383337 0.050447
vt 0.419706 0.080294
vt 0.449553 0.116663
vt 0.485388 0.203178
vt 0.490000 0.250000
vt 0.485388 0.296822
vt 0.471731 0.341844
vt 0.449553 0.383337
vt 0.419706 0.419706
vt 0.383337 0.449553
vt 0.703178 0.485388
vt 0.750000 0.490000
vt 0.796822 0.485388
vt 0.841844 0.471731
vt 0.883337 0.449553
vt 0.919706 0.419706
vt 0.949553 0.383337
vt 0.971731 0.341844
vt 0.990000 0.250000
vt 0.985388 0.203178
vt 0.971731 0.158156
vt 0.949553 0.116663
vt 0.919706 0.080294
vt 0.883337 0.050447
vt 0.841844 0.028269
vt 0.750000 0.010000
vt 0.703178 0.014612
vt 0.658156 0.028269
vt 0.616663 0.050447
vt 0.580294 0.080294
vt 0.550447 0.116663
vt 0.528269 0.158156
vt 0.510000 0.250000
vt 0.514612 0.296822
vt 0.528269 0.341844
vt 0.550447 0.383337
vt 0.580294 0.419706
vt 0.616663 0.449553
vt 0.658156 0.471731
vt 0.625000 0.000000
vt 0.875000 0.500000
vn 0.0980 0.0000 -0.9952
vn 0.2903 0.0000 -0.9569
vn 0.4714 0.0000 -0.8819
vn 0.6344 0.0000 -0.7730
vn 0.7730 0.0000 -0.6344
vn 0.8819 0.0000 -0.4714
vn 0.9569 0.0000 -0.2903
vn 0.9952 0.0000 -0.0980
vn 0.9952 0.0000 0.0980
vn 0.9569 0.0000 0.2903
vn 0.8819 0.0000 0.4714
vn 0.7730 0.0000 0.6344
vn 0.6344 0.0000 0.7730
vn 0.4714 0.0000 0.8819
vn 0.2903 0.0000 0.9569
vn 0.0980 0.0000 0.9952
vn -0.0980 0.0000 0.9952
vn -0.2903 0.0000 0.9569
vn -0.4714 0.0000 0.8819
vn -0.6344 0.0000 0.7730
vn -0.7730 0.0000 0.6344
vn -0.8819 0.0000 0.4714
vn -0.9569 0.0000 0.2903
vn -0.9952 0.0000 0.0980
vn -0.9952 0.0000 -0.0980
vn -0.9569 0.0000 -0.2903
vn -0.8819 0.0000 -0.4714
vn -0.7730 0.0000 -0.6344
vn -0.6344 0.0000 -0.7730
vn -0.4714 0.0000 -0.8819
vn 0.0000 1.0000 0.0000
vn -0.2903 0.0000 -0.9569
vn -0.0980 0.0000 -0.9952
vn 0.0000 -1.0000 0.0000
vn -0.5095 0.7868 -0.3484
vn 0.4016 0.7218 -0.5636
vn 0.6031 0.7297 0.3223
vn -0.4790 0.4101 0.7762
vn 0.7749 0.6320 0.0000
vn -0.5385 0.4610 -0.7054
vn 0.0000 0.9144 -0.4049
vn 0.4862 0.8739 0.0000
vn 0.7464 0.6088 0.2689
vn 0.0000 0.5470 -0.8371
usemtl None
s off
f 1/1/1 4/2/1 3/3/1
f 3/3/2 6/4/2 5/5/2
f 5/5/3 8/6/3 7/7/3
f 7/7/4 10/8/4 9/9/4
f 9/9/5 12/10/5 11/11/5
f 11/11/6 14/12/6 13/13/6
f 13/13/7 16/14/7 15/15/7
f 15/15/8 18/16/8 17/17/8
f 17/17/9 20/18/9 19/19/9
f 19/19/10 22/20/10 21/21/10
f 21/21/11 24/22/11 23/23/11
f 23/23/12 26/24/12 25/25/12
f 25/25/13 28/26/13 27/27/13
f 27/27/14 30/28/14 29/29/14
f 29/29/15 32/30/15 31/31/15
f 31/31/16 34/32/16 33/33/16
f 33/33/17 36/34/17 35/35/17
f 35/35/18 38/36/18 37/37/18
f 37/37/19 40/38/19 39/39/19
f 39/39/20 42/40/20 41/41/20
f 41/41/21 44/42/21 43/43/21
f 43/43/22 46/44/22 45/45/22
f 45/45/23 48/46/23 47/47/23
f 47/47/24 50/48/24 49/49/24
f 49/49/25 52/50/25 51/51/25
f 51/51/26 54/52/26 53/53/26
f 53/53/27 56/54/27 55/55/27
f 55/55/28 58/56/28 57/57/28
f 57/57/29 60/58/29 59/59/29
f 59/59/30 62/60/30 61/61/30
f 54/62/31 38/63/31 22/64/31
f 61/61/32 64/65/32 63/66/32
f 63/66/33 2/67/33 1/68/33
f 15/69/34 31/70/34 47/71/34
f 65/72/35 68/73/35 67/74/35
f 67/74/36 72/75/36 71/76/36
f 71/76/37 70/77/37 69/78/37
f 69/78/38 66/79/38 65/80/38
f 67/81/34 69/78/34 65/82/34
f 72/75/39 66/83/39 70/77/39
f 1/1/1 2/84/1 4/2/1
f 3/3/2 4/2/2 6/4/2
f 5/5/3 6/4/3 8/6/3
f 7/7/4 8/6/4 10/8/4
f 9/9/5 10/8/5 12/10/5
f 11/11/6 12/10/6 14/12/6
f 13/13/7 14/12/7 16/14/7
f 15/15/8 16/14/8 18/16/8
f 17/17/9 18/16/9 20/18/9
f 19/19/10 20/18/10 22/20/10
f 21/21/11 22/20/11 24/22/11
f 23/23/12 24/22/12 26/24/12
f 25/25/13 26/24/13 28/26/13
f 27/27/14 28/26/14 30/28/14
f 29/29/15 30/28/15 32/30/15
f 31/31/16 32/30/16 34/32/16
f 33/33/17 34/32/17 36/34/17
f 35/35/18 36/34/18 38/36/18
f 37/37/19 38/36/19 40/38/19
f 39/39/20 40/38/20 42/40/20
f 41/41/21 42/40/21 44/42/21
f 43/43/22 44/42/22 46/44/22
f 45/45/23 46/44/23 48/46/23
f 47/47/24 48/46/24 50/48/24
f 49/49/25 50/48/25 52/50/25
f 51/51/26 52/50/26 54/52/26
f 53/53/27 54/52/27 56/54/27
f 55/55/28 56/54/28 58/56/28
f 57/57/29 58/56/29 60/58/29
f 59/59/30 60/58/30 62/60/30
f 6/85/31 4/86/31 62/87/31
f 4/86/31 2/88/31 62/87/31
f 2/88/31 64/89/31 62/87/31
f 62/87/31 60/90/31 58/91/31
f 58/91/31 56/92/31 62/87/31
f 56/92/31 54/62/31 62/87/31
f 54/62/31 52/93/31 50/94/31
f 50/94/31 48/95/31 46/96/31
f 46/96/31 44/97/31 42/98/31
f 42/98/31 40/99/31 38/63/31
f 38/63/31 36/100/31 34/101/31
f 34/101/31 32/102/31 30/103/31
f 30/103/31 28/104/31 26/105/31
f 26/105/31 24/106/31 22/64/31
f 22/64/31 20/107/31 18/108/31
f 18/108/31 16/109/31 14/110/31
f 14/110/31 12/111/31 10/112/31
f 10/112/31 8/113/31 6/85/31
f 54/62/31 50/94/31 38/63/31
f 50/94/31 46/96/31 38/63/31
f 46/96/31 42/98/31 38/63/31
f 38/63/31 34/101/31 30/103/31
f 30/103/31 26/105/31 38/63/31
f 26/105/31 22/64/31 38/63/31
f 22/64/31 18/108/31 6/85/31
f 18/108/31 14/110/31 6/85/31
f 14/110/31 10/112/31 6/85/31
f 6/85/31 62/87/31 54/62/31
f 6/85/31 54/62/31 22/64/31
f 61/61/32 62/60/32 64/65/32
f 63/66/33 64/65/33 2/67/33
f 63/114/34 1/115/34 3/116/34
f 3/116/34 5/117/34 7/118/34
f 7/118/34 9/119/34 11/120/34
f 11/120/34 13/121/34 15/69/34
f 15/69/34 17/122/34 19/123/34
f 19/123/34 21/124/34 23/125/34
f 23/125/34 25/126/34 27/127/34
f 27/127/34 29/128/34 31/70/34
f 31/70/34 33/129/34 35/130/34
f 35/130/34 37/131/34 39/132/34
f 39/132/34 41/133/34 43/134/34
f 43/134/34 45/135/34 47/71/34
f 47/71/34 49/136/34 51/137/34
f 51/137/34 53/138/34 47/71/34
f 53/138/34 55/139/34 47/71/34
f 55/139/34 57/140/34 59/141/34
f 59/141/34 61/142/34 55/139/34
f 61/142/34 63/114/34 55/139/34
f 63/114/34 3/116/34 15/69/34
f 3/116/34 7/118/34 15/69/34
f 7/118/34 11/120/34 15/69/34
f 15/69/34 19/123/34 23/125/34
f 23/125/34 27/127/34 15/69/34
f 27/127/34 31/70/34 15/69/34
f 31/70/34 35/130/34 47/71/34
f 35/130/34 39/132/34 47/71/34
f 39/132/34 43/134/34 47/71/34
f 47/71/34 55/139/34 63/114/34
f 63/114/34 15/69/34 47/71/34
f 65/72/40 66/143/40 68/73/40
f 67/74/41 68/73/41 72/75/41
f 71/76/42 72/75/42 70/77/42
f 69/78/43 70/77/43 66/79/43
f 67/81/34 71/76/34 69/78/34
f 72/75/44 68/144/44 66/83/44
