# Blender v3.2.2 OBJ File: ''
# www.blender.org
mtllib game_clock.mtl
o Cube
v 0.149345 0.075365 -0.035197
v -0.108423 0.008238 0.023556
v 0.149345 -0.000759 -0.035197
v -0.108423 0.058311 0.023556
v 0.149345 0.075365 0.025550
v 0.149345 -0.000759 0.025550
v -0.151397 0.075365 -0.035197
v 0.106371 0.008238 0.023556
v -0.151397 -0.000759 -0.035197
v 0.106371 0.058311 0.023556
v -0.151397 0.075365 0.025550
v -0.151397 -0.000759 0.025550
v 0.106371 0.058311 0.025550
v -0.108423 0.008238 0.025550
v -0.108423 0.058311 0.025550
v 0.106371 0.008238 0.025550
vt 0.875000 0.500000
vt 0.625000 0.750000
vt 0.625000 0.500000
vt 0.568991 0.964277
vt 0.568991 0.785723
vt 0.375000 1.000000
vt 0.404547 0.785723
vt 0.404547 0.964277
vt 0.625000 0.000000
vt 0.375000 0.250000
vt 0.375000 0.000000
vt 0.375000 0.500000
vt 0.125000 0.750000
vt 0.125000 0.500000
vt 0.375000 0.750000
vt 0.625000 0.250000
vt 0.875000 0.750000
vt 0.625000 1.000000
vt 0.625000 0.000000
vt 0.375000 0.190703
vt 0.375000 0.000000
vt 0.375000 0.750000
vt 0.625000 0.559297
vt 0.625000 0.750000
vt 0.625000 1.000000
vt 0.375000 1.000000
vt 0.125000 0.559297
vt 0.375000 0.559297
vt 0.875000 0.559297
vt 0.875000 0.750000
vt 0.625000 0.190703
vt 0.125000 0.750000
vn 0.0000 1.0000 0.0000
vn 0.0000 0.0000 1.0000
vn -1.0000 0.0000 0.0000
vn 0.0000 -1.0000 0.0000
vn 1.0000 0.0000 0.0000
vn 0.0000 0.0000 -1.0000
usemtl Material
s off
f 7/1/1 5/2/1 1/3/1
f 15/4/2 13/5/2 5/2/2
f 12/6/2 16/7/2 14/8/2
f 11/9/3 9/10/3 12/11/3
f 3/12/4 12/13/4 9/14/4
f 1/3/5 6/15/5 3/12/5
f 7/16/6 3/12/6 9/10/6
f 7/1/1 11/17/1 5/2/1
f 13/5/2 16/7/2 6/15/2
f 11/18/2 12/6/2 15/4/2
f 12/6/2 14/8/2 15/4/2
f 13/5/2 6/15/2 5/2/2
f 11/18/2 15/4/2 5/2/2
f 12/6/2 6/15/2 16/7/2
f 11/9/3 7/16/3 9/10/3
f 3/12/4 6/15/4 12/13/4
f 1/3/5 5/2/5 6/15/5
f 7/16/6 1/3/6 3/12/6
usemtl (null)
f 4/19/5 14/20/5 2/21/5
f 8/22/3 13/23/3 10/24/3
f 8/22/2 4/25/2 2/26/2
f 8/22/1 14/27/1 16/28/1
f 10/24/4 15/29/4 4/30/4
f 4/19/5 15/31/5 14/20/5
f 8/22/3 16/28/3 13/23/3
f 8/22/2 10/24/2 4/25/2
f 8/22/1 2/32/1 14/27/1
f 10/24/4 13/23/4 15/29/4
o Cube.001
v -0.117561 -0.039177 0.014750
v -0.117561 0.000590 0.000218
v -0.117561 -0.035879 0.023777
v -0.117561 0.003889 0.009246
v -0.127498 -0.039177 0.014750
v -0.127498 0.000590 0.000218
v -0.127498 -0.035879 0.023777
v -0.127498 0.003889 0.009246
vt 0.625000 0.000000
vt 0.375000 0.250000
vt 0.375000 0.000000
vt 0.625000 0.250000
vt 0.375000 0.500000
vt 0.625000 0.500000
vt 0.375000 0.750000
vt 0.625000 0.750000
vt 0.375000 1.000000
vt 0.125000 0.750000
vt 0.125000 0.500000
vt 0.875000 0.500000
vt 0.625000 1.000000
vt 0.875000 0.750000
vn 1.0000 0.0000 0.0000
vn 0.0000 0.3432 0.9393
vn -1.0000 0.0000 0.0000
vn 0.0000 -0.3432 -0.9393
vn 0.0000 -0.9393 0.3432
vn 0.0000 0.9393 -0.3432
usemtl Material.001
s off
f 18/33/7 19/34/7 17/35/7
f 20/36/8 23/37/8 19/34/8
f 24/38/9 21/39/9 23/37/9
f 22/40/10 17/41/10 21/39/10
f 23/37/11 17/42/11 19/43/11
f 20/44/12 22/40/12 24/38/12
f 18/33/7 20/36/7 19/34/7
f 20/36/8 24/38/8 23/37/8
f 24/38/9 22/40/9 21/39/9
f 22/40/10 18/45/10 17/41/10
f 23/37/11 21/39/11 17/42/11
f 20/44/12 18/46/12 22/40/12
o Cube.002
v 0.128524 -0.039177 0.014750
v 0.128524 0.000590 0.000218
v 0.128524 -0.035879 0.023777
v 0.128524 0.003889 0.009246
v 0.118586 -0.039177 0.014750
v 0.118586 0.000590 0.000218
v 0.118586 -0.035879 0.023777
v 0.118586 0.003889 0.009246
vt 0.625000 0.000000
vt 0.375000 0.250000
vt 0.375000 0.000000
vt 0.625000 0.250000
vt 0.375000 0.500000
vt 0.625000 0.500000
vt 0.375000 0.750000
vt 0.625000 0.750000
vt 0.375000 1.000000
vt 0.125000 0.750000
vt 0.125000 0.500000
vt 0.875000 0.500000
vt 0.625000 1.000000
vt 0.875000 0.750000
vn 1.0000 -0.0000 0.0000
vn 0.0000 0.3432 0.9393
vn -1.0000 0.0000 0.0000
vn 0.0000 -0.3432 -0.9393
vn 0.0000 -0.9393 0.3432
vn 0.0000 0.9393 -0.3432
usemtl Material.001
s off
f 26/47/13 27/48/13 25/49/13
f 28/50/14 31/51/14 27/48/14
f 32/52/15 29/53/15 31/51/15
f 30/54/16 25/55/16 29/53/16
f 31/51/17 25/56/17 27/57/17
f 28/58/18 30/54/18 32/52/18
f 26/47/13 28/50/13 27/48/13
f 28/50/14 32/52/14 31/51/14
f 32/52/15 30/54/15 29/53/15
f 30/54/16 26/59/16 25/55/16
f 31/51/17 29/53/17 25/56/17
f 28/58/18 26/60/18 30/54/18
o Cube.003
v 0.128524 -0.035894 -0.032831
v 0.128524 0.003892 -0.018350
v 0.128524 -0.039181 -0.023799
v 0.128524 0.000605 -0.009319
v 0.118586 -0.035894 -0.032831
v 0.118586 0.003892 -0.018350
v 0.118586 -0.039181 -0.023799
v 0.118586 0.000605 -0.009319
vt 0.625000 0.000000
vt 0.375000 0.250000
vt 0.375000 0.000000
vt 0.625000 0.250000
vt 0.375000 0.500000
vt 0.625000 0.500000
vt 0.375000 0.750000
vt 0.625000 0.750000
vt 0.375000 1.000000
vt 0.125000 0.750000
vt 0.125000 0.500000
vt 0.875000 0.500000
vt 0.625000 1.000000
vt 0.875000 0.750000
vn 1.0000 0.0000 0.0000
vn 0.0000 -0.3420 0.9397
vn -1.0000 0.0000 0.0000
vn 0.0000 0.3420 -0.9397
vn 0.0000 -0.9397 -0.3420
vn 0.0000 0.9397 0.3420
usemtl Material.001
s off
f 34/61/19 35/62/19 33/63/19
f 36/64/20 39/65/20 35/62/20
f 40/66/21 37/67/21 39/65/21
f 38/68/22 33/69/22 37/67/22
f 39/65/23 33/70/23 35/71/23
f 36/72/24 38/68/24 40/66/24
f 34/61/19 36/64/19 35/62/19
f 36/64/20 40/66/20 39/65/20
f 40/66/21 38/68/21 37/67/21
f 38/68/22 34/73/22 33/69/22
f 39/65/23 37/67/23 33/70/23
f 36/72/24 34/74/24 38/68/24
o Cube.004
v -0.117561 -0.035894 -0.032831
v -0.117561 0.003892 -0.018350
v -0.117561 -0.039181 -0.023799
v -0.117561 0.000605 -0.009319
v -0.127498 -0.035894 -0.032831
v -0.127498 0.003892 -0.018350
v -0.127498 -0.039181 -0.023799
v -0.127498 0.000605 -0.009319
vt 0.625000 0.000000
vt 0.375000 0.250000
vt 0.375000 0.000000
vt 0.625000 0.250000
vt 0.375000 0.500000
vt 0.625000 0.500000
vt 0.375000 0.750000
vt 0.625000 0.750000
vt 0.375000 1.000000
vt 0.125000 0.750000
vt 0.125000 0.500000
vt 0.875000 0.500000
vt 0.625000 1.000000
vt 0.875000 0.750000
vn 1.0000 0.0000 0.0000
vn 0.0000 -0.3420 0.9397
vn -1.0000 0.0000 0.0000
vn 0.0000 0.3420 -0.9397
vn 0.0000 -0.9397 -0.3420
vn 0.0000 0.9397 0.3420
usemtl Material.001
s off
f 42/75/25 43/76/25 41/77/25
f 44/78/26 47/79/26 43/76/26
f 48/80/27 45/81/27 47/79/27
f 46/82/28 41/83/28 45/81/28
f 47/79/29 41/84/29 43/85/29
f 44/86/30 46/82/30 48/80/30
f 42/75/25 44/78/25 43/76/25
f 44/78/26 48/80/26 47/79/26
f 48/80/27 46/82/27 45/81/27
f 46/82/28 42/87/28 41/83/28
f 47/79/29 45/81/29 41/84/29
f 44/86/30 42/88/30 46/82/30
o Cube.005
v -0.108423 0.008238 0.021671
v -0.108423 0.058311 0.021671
v -0.108423 0.008238 0.024284
v -0.108423 0.058311 0.024284
v 0.106371 0.008238 0.021671
v 0.106371 0.058311 0.021671
v 0.106371 0.008238 0.024284
v 0.106371 0.058311 0.024284
vt 0.625000 0.000000
vt 0.375000 0.000000
vt 0.375000 0.250000
vt 0.625000 0.250000
vt 0.375000 0.500000
vt 0.625000 0.500000
vt 0.375000 0.750000
vt 0.625000 0.750000
vt 0.375000 1.000000
vt 0.125000 0.500000
vt 0.125000 0.750000
vt 0.875000 0.500000
vt 0.625000 1.000000
vt 0.875000 0.750000
vn -1.0000 0.0000 0.0000
vn 0.0000 0.0000 1.0000
vn 1.0000 0.0000 0.0000
vn 0.0000 0.0000 -1.0000
vn 0.0000 -1.0000 0.0000
vn 0.0000 1.0000 0.0000
usemtl Material.002
s off
f 50/89/31 49/90/31 51/91/31
f 52/92/32 51/91/32 55/93/32
f 56/94/33 55/93/33 53/95/33
f 54/96/34 53/95/34 49/97/34
f 55/93/35 51/98/35 49/99/35
f 52/100/36 56/94/36 54/96/36
f 50/89/31 51/91/31 52/92/31
f 52/92/32 55/93/32 56/94/32
f 56/94/33 53/95/33 54/96/33
f 54/96/34 49/97/34 50/101/34
f 55/93/35 49/99/35 53/95/35
f 52/100/36 54/96/36 50/102/36
